<?xml version="1.0" encoding="utf-8"?>
<!-- Generator: Adobe Illustrator 28.0.0, SVG Export Plug-In . SVG Version: 6.00 Build 0)  -->
<svg version="1.1" xmlns="http://www.w3.org/2000/svg" xmlns:xlink="http://www.w3.org/1999/xlink" x="0px" y="0px"
	 viewBox="0 0 340.75 278.29" style="enable-background:new 0 0 340.75 278.29;" xml:space="preserve">
<g id="BACKGROUND">
</g>
<g id="OBJECTS">
	<path d="M158.67,216.96c43.17,0.03,77.99-34.74,77.99-77.89c0-42.74-34.89-77.64-77.73-77.75c-42.99-0.1-77.99,34.91-77.95,77.98
		C81.02,182.2,115.77,216.93,158.67,216.96z M125.11,196.12c1.87-1.98,3.06-3.29,4.31-4.54c16.08-16.11,32.07-32.3,48.31-48.24
		c3.34-3.28,3.18-5.19-0.07-8.37c-15.88-15.59-31.53-31.43-47.3-47.14c-1.6-1.59-3.5-2.89-5.25-4.32c0.29-0.45,0.58-0.91,0.87-1.36
		c8.22,0,16.45-0.23,24.66,0.14c2.49,0.11,5.48,1.32,7.26,3.04c12.52,12.15,24.75,24.58,37.12,36.87
		c5.63,5.59,11.37,11.06,17.3,16.82c-18.97,18.91-37.31,37.21-55.69,55.46c-0.77,0.76-1.95,1.56-2.94,1.57
		C144.46,196.17,135.23,196.12,125.11,196.12z"/>
</g>
</svg>
