<?xml version="1.0" encoding="UTF-8"?>
<svg xmlns="http://www.w3.org/2000/svg" version="1.1" viewBox="0 0 397.35 397.35">
  <!-- Generator: Adobe Illustrator 29.8.2, SVG Export Plug-In . SVG Version: 2.1.1 Build 3)  -->
  <defs>
    <style>
      .st0 {
        fill: #121214;
      }

      .st1 {
        fill: #fff;
      }
    </style>
  </defs>
  <g id="background">
    <rect class="st1" x="1099.35" y="230.68" width="2200" height="2200"/>
  </g>
  <g id="objects">
    <g>
      <path class="st0" d="M1678.35,1330.68c0,109.73-88.95,198.68-198.68,198.68h0c-109.73,0-198.68-88.95-198.68-198.68h0c0-109.73,88.95-198.68,198.68-198.68h0c109.73,0,198.68,88.95,198.68,198.68h0Z"/>
      <path class="st1" d="M1479.68,1198.18c-73.19,0-132.5,59.3-132.5,132.5s59.3,132.5,132.5,132.5,132.5-59.3,132.5-132.5-59.3-132.5-132.5-132.5ZM1593.85,1328.12c-22.98-6.58-51.58-10.46-81.33-3.88-3.15-7.08-6.4-13.89-9.69-20.42,30.02-12.98,51.81-30.15,66.16-44.23,15.12,18.91,24.31,42.63,24.85,68.53ZM1479.68,1216.46c29.56,0,56.52,11.24,76.8,29.74-13.25,13.02-33.76,29.33-62.18,41.39-17.22-31.11-34.68-54.46-44.87-67.02,9.64-2.7,19.78-4.11,30.25-4.11ZM1431.2,1227.28c8.04,9.59,26.77,33.49,45.51,66.89-41.99,13.62-86.72,14.8-109.06,14.35,7.08-36.05,31.16-66.02,63.55-81.23ZM1365.46,1330.68c0-1.28,0-2.6.09-3.88,3.11.09,6.67.14,10.6.14,25.95,0,68.58-2.56,109.29-16.4,3.11,6.03,6.12,12.34,9.05,18.87-57.57,19.51-88.18,58.53-100.06,77.21-18-20.19-28.97-46.78-28.97-75.93ZM1479.68,1444.9c-27.14,0-52.08-9.5-71.68-25.36v-.05c8.73-14.53,37.05-54.46,93.66-73.28,10.78,27.09,19.42,57.38,22.8,89.5-13.75,5.94-28.88,9.18-44.77,9.18ZM1541.81,1426.49c-3.93-30.57-12.11-59.21-22.2-85.07,26.64-5.12,52.59-.78,73.1,5.57-4.75,33.26-23.89,61.91-50.9,79.5Z"/>
    </g>
    <g>
      <path class="st0" d="M3118.33,1330.68c0,109.73-88.95,198.68-198.68,198.68h0c-109.73,0-198.68-88.95-198.68-198.68h0c0-109.73,88.95-198.68,198.68-198.68h0c109.73,0,198.68,88.95,198.68,198.68h0Z"/>
      <path class="st1" d="M3039.55,1401.63c-5.74,3.99-14.01,8.04-25.05,10.72-2.02.44-3.66,1.93-4.23,3.93l-1.14,4.24c-1.39,4.86-5.81,8.35-10.92,8.6-48.84,2.62-42.6,20.88-78.57,20.88s-29.72-18.26-78.57-20.88c-5.11-.25-9.53-3.74-10.92-8.6l-1.14-4.24c-.57-1.99-2.21-3.49-4.23-3.93-11.04-2.68-19.31-6.73-25.05-10.72-5.49-3.8-4.67-11.97,1.33-14.9,46.38-22.62,45.88-46.81,45.88-46.81l-21.77-16.33c-6.69-4.99-8.46-14.09-4.17-21.19,3.03-4.99,8.46-7.92,14.07-7.92,1.39,0,2.71.19,4.04.5l13.69,3.43c-1.7-5.86-2.59-12.09-2.59-18.51,0-37.89,31.05-68.56,69.42-68.56s69.42,30.66,69.42,68.56c0,6.42-.88,12.65-2.59,18.51l13.69-3.43c7-1.74,14.39,1.25,18.11,7.42,1.58,2.62,2.33,5.48,2.33,8.35,0,4.86-2.27,9.66-6.5,12.84l-21.77,16.33s-.5,24.18,45.88,46.81c6,2.93,6.82,11.09,1.33,14.9Z"/>
    </g>
    <g>
      <path class="st0" d="M2158.35,1330.68c0,109.73-88.95,198.68-198.68,198.68h0c-109.73,0-198.68-88.95-198.68-198.68h0c0-109.73,88.95-198.68,198.68-198.68h0c109.73,0,198.68,88.95,198.68,198.68h0Z"/>
      <path class="st1" d="M1912.01,1452.92c3.87-3.61,20.01-20.31,28.51-54.93l6.41-26.32c6.01,6.26,14.36,10.44,23.16,12.58,35.59,8.76,70.05-29.27,79.01-65.83,12.58-51.17-13.54-96.32-56.82-106.91-49.84-12.22-108.64,12.12-123,70.61-5.04,20.57-3.36,51.67,24.54,66.49,2.85,1.53,6.36-.05,7.13-3.21l3.92-15.83c.41-1.83-.31-3.72-1.73-4.99-9.93-9.01-12.22-23.72-8.86-37.52,9.72-39.56,50.4-55.8,85.02-47.3,30.04,7.38,48.31,38.03,39.81,72.65-6.06,24.74-23.22,51.98-47.96,45.92-14.82-3.61-16.5-18.12-12.47-34.52l9.06-37.06c2.34-9.57-3.51-19.24-13.03-21.59-9.57-2.34-24.69,4.43-29.53,24.23-2.85,11.56-.51,20.82,3.87,26.93l-18.23,74.38c-8.4,34.26-2.04,56.41-.15,61.7"/>
    </g>
    <g>
      <path class="st0" d="M1678.35,1895.81c0,109.73-88.95,198.68-198.68,198.68h0c-109.73,0-198.68-88.95-198.68-198.68h0c0-109.73,88.95-198.68,198.68-198.68h0c109.73,0,198.68,88.95,198.68,198.68h0Z"/>
      <g>
        <path class="st1" d="M1567.93,1784.54h-142.63c-2.03,0-3.98.8-5.42,2.24l-33.87,33.87c-1.44,1.44-2.25,3.39-2.25,5.43v134.93c0,4.24,3.44,7.66,7.67,7.66h42.21v34.62c0,3.36,4.06,5.05,6.44,2.67l37.29-37.29h25.98c2.03,0,3.98-.8,5.42-2.24l64.57-64.56c1.44-1.44,2.25-3.39,2.25-5.42v-104.24c0-4.24-3.44-7.66-7.67-7.66ZM1569.37,1891.69c0,3.45-1.35,6.71-3.79,9.15l-23.31,23.31c-2.49,2.46-5.72,3.79-9.15,3.79h-30.48l-24.22,24.22c-2.14,2.14-4.99,3.33-8,3.33-6.26,0-11.36-5.09-11.36-11.35v-16.2h-25.42c-7.15,0-12.95-5.81-12.95-12.95v-111.27c0-7.14,5.81-12.95,12.95-12.95h122.78c7.14,0,12.95,5.81,12.95,12.95v87.96Z"/>
        <path class="st1" d="M1556.42,1799.89h-122.78c-2.12,0-3.84,1.71-3.84,3.84v111.27c0,2.11,1.71,3.84,3.84,3.84h34.53v25.32c0,1.99,2.4,2.98,3.8,1.58l26.89-26.89h34.25c1.01,0,1.99-.41,2.71-1.12l23.31-23.31c.72-.72,1.12-1.7,1.12-2.71v-87.96c0-2.12-1.72-3.84-3.84-3.84ZM1491.19,1871.88c0,.5-.41.91-.91.91h-13.52c-.51,0-.91-.41-.91-.91v-44.22c0-.51.4-.91.91-.91h13.52c.5,0,.91.4.91.91v44.22ZM1537.23,1871.88c0,.5-.41.91-.91.91h-13.52c-.5,0-.91-.41-.91-.91v-44.22c0-.51.41-.91.91-.91h13.52c.5,0,.91.4.91.91v44.22Z"/>
      </g>
    </g>
    <g>
      <path class="st0" d="M397.35,198.68c0,109.73-88.95,198.68-198.68,198.68h0C88.95,397.35,0,308.4,0,198.68H0C0,88.95,88.95,0,198.68,0h0C308.4,0,397.35,88.95,397.35,198.68h0Z"/>
      <path class="st1" d="M316.53,189.62c0-14.79-12-26.79-26.79-26.79-7.12,0-13.55,2.79-18.38,7.29-16.07-12.59-37.71-20.95-61.87-22.93l13.71-41.09,34.55,17.3c-.05.64-.16,1.23-.16,1.93,0,8.89,7.18,16.07,16.07,16.07s16.07-7.18,16.07-16.07-7.23-16.07-16.07-16.07c-4.34,0-8.25,1.71-11.14,4.5l-34.87-17.41c-2.62-1.34-5.73-1.5-8.52-.38-2.79,1.12-4.98,3.37-5.95,6.27l-14.84,44.52c-28.39.05-54,9-72.37,23.36-4.82-4.5-11.25-7.29-18.38-7.29-14.79,0-26.79,12-26.79,26.79,0,11.3,7.02,21,16.93,24.91-.59,3.27-.86,6.54-.86,9.91,0,42.91,45.59,77.68,101.78,77.68s101.78-34.77,101.78-77.68c0-3.37-.27-6.64-.86-9.91,9.91-3.91,16.93-13.61,16.93-24.91ZM145.11,211.05c0-8.89,7.18-16.07,16.07-16.07s16.07,7.18,16.07,16.07-7.18,16.07-16.07,16.07-16.07-7.18-16.07-16.07ZM240.62,256.85c-.48.75-12.64,18.48-41.95,18.48s-41.46-17.73-41.95-18.48c-1.66-2.46-1.02-5.79,1.45-7.39,2.46-1.66,5.78-.96,7.45,1.45.38.59,9.75,13.71,33.05,13.71s32.68-13.18,33.05-13.71c1.66-2.41,4.98-3.05,7.45-1.39,2.41,1.61,3.05,4.93,1.45,7.34ZM236.18,227.12c-8.89,0-16.07-7.18-16.07-16.07s7.18-16.07,16.07-16.07,16.07,7.18,16.07,16.07-7.18,16.07-16.07,16.07Z"/>
    </g>
    <g>
      <path class="st0" d="M1678.35,765.54c0,109.73-88.95,198.68-198.68,198.68h0c-109.73,0-198.68-88.95-198.68-198.68h0c0-109.73,88.95-198.68,198.68-198.68h0c109.73,0,198.68,88.95,198.68,198.68h0Z"/>
      <path class="st1" d="M1538.54,750.13l-3.31,26.58c-.56,4.44-4.32,7.78-8.78,7.78h-43.05v111.13c-4.54.41-9.14.62-13.79.62-10.4,0-20.55-1.04-30.36-3.02v-108.73h-33.11c-3.04,0-5.52-2.49-5.52-5.54v-33.26c0-3.05,2.48-5.54,5.52-5.54h33.11v-49.88c0-30.61,24.71-55.42,55.2-55.42h38.63c3.04,0,5.52,2.49,5.52,5.54v33.26c0,3.05-2.48,5.54-5.52,5.54h-27.6c-12.19,0-22.07,9.92-22.07,22.17v38.8h46.36c5.32,0,9.43,4.68,8.78,9.98Z"/>
    </g>
    <g>
      <path class="st0" d="M3118.33,765.54c0,109.73-88.95,198.68-198.68,198.68h0c-109.73,0-198.68-88.95-198.68-198.68h0c0-109.73,88.95-198.68,198.68-198.68h0c109.73,0,198.68,88.95,198.68,198.68h0Z"/>
      <path class="st1" d="M3005.28,681.36h-171.24c-16.92,0-30.64,13.72-30.64,30.63v107.1c0,16.92,13.72,30.63,30.64,30.63h171.24c16.91,0,30.63-13.71,30.63-30.63v-107.1c0-16.91-13.72-30.63-30.63-30.63ZM2947.16,772.93l-47.62,23.8c-5.5,2.75-11.96-1.24-11.96-7.38v-47.6c0-6.14,6.47-10.13,11.96-7.39l47.62,23.8c6.08,3.04,6.08,11.73,0,14.77Z"/>
    </g>
  </g>
</svg>